<svg xmlns="http://www.w3.org/2000/svg" width="19" height="20" viewBox="0 0 19 20">
    <g fill="#385766" fill-rule="evenodd">
        <path d="M9 12c.16 0 .32.003.478.008C8.554 12.958 8 14.175 8 15.5c0 1.86 1.091 3.505 2.762 4.5H0v-2.063C0 14.658 4.003 12 9 12zM9 10.476c-2.878 0-5.21-2.345-5.21-5.238C3.79 2.345 6.121 0 9 0s5.21 2.345 5.21 5.238c0 2.893-2.332 5.238-5.21 5.238"/>
        <path d="M18.32 16.846c.09-.3.152-.607.18-.92l-1.174-.58a3.316 3.316 0 0 0-.023-.262l1.049-.785a4.523 4.523 0 0 0-.346-.87l-1.3.147a3.305 3.305 0 0 0-.16-.206l.458-1.23a4.483 4.483 0 0 0-.76-.546l-1.014.83a3.34 3.34 0 0 0-.247-.087l-.277-1.282a4.5 4.5 0 0 0-.933-.049l-.407 1.247c-.085.017-.17.037-.255.06l-.924-.927a4.53 4.53 0 0 0-.811.465l.33 1.269c-.063.06-.123.124-.18.19l-1.28-.281a4.53 4.53 0 0 0-.43.831l.963.89c-.02.084-.037.17-.051.256l-1.228.457c-.004.31.024.623.085.933l1.29.226c.03.082.06.163.096.244l-.785 1.048c.169.27.362.518.575.74l1.206-.51c.07.055.14.106.213.154l-.095 1.308c.283.133.58.237.883.31l.74-1.082c.087.008.174.012.262.013L14.596 20c.306-.04.61-.112.909-.218l.04-1.312a3.207 3.207 0 0 0 .227-.13l1.148.63c.242-.204.458-.43.648-.675l-.675-1.125c.044-.076.084-.153.12-.232l1.306-.092zm-3.612-.104a1.447 1.447 0 0 1-1.978-.539 1.454 1.454 0 0 1 .538-1.982 1.447 1.447 0 0 1 1.977.54 1.454 1.454 0 0 1-.537 1.98z"/>
    </g>
</svg>
