<svg xmlns="http://www.w3.org/2000/svg" width="19" height="21" viewBox="0 0 19 21">
    <path fill="#FFF" fill-rule="nonzero" d="M17.465 14.285c-.896-.868-2.004-1.949-2.004-6.167a6.305 6.305 0 0 0-5.38-6.159c.149-.207.229-.455.229-.71A1.287 1.287 0 0 0 9.022.002C8.324 0 7.754.554 7.734 1.25c0 .254.08.502.229.709a6.305 6.305 0 0 0-5.38 6.159c0 4.218-1.113 5.3-2.004 6.167a1.864 1.864 0 0 0-.407 2.062 1.874 1.874 0 0 0 1.774 1.135h4.508a2.573 2.573 0 0 0 2.576 2.519 2.573 2.573 0 0 0 2.576-2.519h4.508a1.874 1.874 0 0 0 1.76-1.142 1.864 1.864 0 0 0-.41-2.055zM9.016 18.42a.314.314 0 0 1 .287.474c-.06.1-.17.157-.287.15a1.588 1.588 0 0 1-1.61-1.56h.645c.007.524.44.943.965.936z"/>
</svg>
