<svg xmlns="http://www.w3.org/2000/svg" width="16" height="16" viewBox="0 0 16 16">
    <path fill="#006089" fill-rule="evenodd" d="M5.428 10.728c.483-.4 1.515-.8 1.515-1.518 0-.567-.233-.718-.716-.718-.566 0-.716.484-.716 1.035h-.882c-.084-1.285.799-1.835 1.681-1.835.8 0 1.515.634 1.515 1.434 0 .801-.483 1.202-.799 1.368-.4.234-1.282.801-1.282 1.035h2.164v.8H4.545c-.166-.717.566-1.284.883-1.6zM3.996 3.521c-.4 0-.716-.317-.716-.801V.718c0-.4.316-.718.716-.718.4 0 .716.317.716.718V2.72c0 .484-.317.8-.716.8zm7.992 0a.711.711 0 0 1-.716-.718V.718c0-.4.316-.718.716-.718.4 0 .715.317.715.718V2.72c0 .484-.316.8-.715.8zm-2.231 8.241c.482 0 .799-.4.799-.884 0-.567-.317-.884-.8-.884-.4 0-.566.167-.715.4h-.8l.483-2.486h2.564v.801H9.457l-.233.885c.166-.167.483-.317.882-.317.966 0 1.432.8 1.432 1.518 0 1.034-.882 1.601-1.682 1.601-1.032 0-1.764-.634-1.681-1.434h.965c-.083.4.234.8.633.8h-.016zM0 16V1.986h2.231v.717c0 .968.8 1.769 1.765 1.769.965 0 1.765-.801 1.765-1.769v-.717h4.478v.717c0 .968.8 1.769 1.765 1.769.966 0 1.765-.801 1.765-1.769v-.717H16V16H0zM14.468 5.99H1.515v8.492h12.953V5.99z"/>
</svg>
