<svg xmlns="http://www.w3.org/2000/svg" width="14" height="14" viewBox="0 0 14 14">
    <path fill="#006089" fill-rule="nonzero" d="M10.928 2.311c.25.001.454.204.455.455v10.02a.457.457 0 0 1-.455.455H.907a.457.457 0 0 1-.455-.455V2.766a.457.457 0 0 1 .455-.455H10.928zm-.001-.911H.907c-.754 0-1.365.612-1.366 1.366v10.02c0 .754.612 1.365 1.366 1.366h10.02c.754 0 1.365-.612 1.366-1.366V2.766c0-.754-.611-1.365-1.365-1.366h-.001zM9.22 7.264H6.43v-2.79a.343.343 0 0 0-.342-.342h-.341a.343.343 0 0 0-.342.342v2.79h-2.79a.343.343 0 0 0-.342.342v.342c0 .189.153.341.342.342h2.79v2.79c0 .189.153.341.342.342h.342a.343.343 0 0 0 .342-.342V8.29h2.79a.343.343 0 0 0 .342-.342v-.342a.343.343 0 0 0-.343-.342z"/>
</svg>
