<svg xmlns="http://www.w3.org/2000/svg" width="16" height="16" viewBox="0 0 16 16">
    <g fill="none" fill-rule="nonzero">
        <path fill="#FFF" d="M15.877 6.061l-2.562-2.246a.391.391 0 0 0-.257-.093h-2.781V2.565a.3.3 0 0 0-.107-.226L7.608.093A.391.391 0 0 0 7.351 0H.38C.179 0 .016.143.016.319v11.64c0 .176.163.319.364.319h5.343v3.403c0 .176.163.319.364.319h9.533c.201 0 .364-.143.364-.319V6.287a.3.3 0 0 0-.107-.226z"/>
        <path fill="#006089" d="M2.047 3.722c-.201 0-.364.143-.364.319 0 .176.163.318.364.318h3.676v.954H2.047c-.201 0-.364.143-.364.319 0 .176.163.319.364.319h3.676v.956H2.047c-.201 0-.364.143-.364.319 0 .176.163.318.364.318h3.676v.957H2.047c-.201 0-.364.143-.364.319 0 .176.163.318.364.318h3.676v2.503H.743V.637h6.244v1.928c0 .176.163.318.364.318H9.55v.839H2.047z"/>
        <path fill="#006089" d="M15.257 15.363H6.45V4.359h6.244v1.928c0 .176.163.318.364.318h2.199v8.758z"/>
        <path fill="#006089" d="M13.421 4.81l.66.58.661.578h-1.32zM7.714 1.088l.66.58.661.578h-1.32z"/>
        <path fill="#FFF" d="M7.754 8.079h4.56c.2 0 .363-.143.363-.32 0-.175-.162-.318-.363-.318h-4.56c-.201 0-.364.143-.364.319 0 .176.163.319.364.319zM13.953 9.035h-6.2c-.2 0-.363.143-.363.319 0 .176.163.319.364.319h6.2c.2 0 .363-.143.363-.32 0-.175-.163-.318-.364-.318zM13.953 10.63h-6.2c-.2 0-.363.142-.363.318 0 .176.163.319.364.319h6.2c.2 0 .363-.143.363-.32 0-.175-.163-.318-.364-.318zM13.953 12.223h-6.2c-.2 0-.363.143-.363.319 0 .176.163.318.364.318h6.2c.2 0 .363-.142.363-.318 0-.176-.163-.319-.364-.319zM13.347 8.079h.606c.201 0 .364-.143.364-.32 0-.175-.163-.318-.364-.318h-.606c-.2 0-.364.143-.364.319 0 .176.163.319.364.319z"/>
    </g>
</svg>
