<svg xmlns="http://www.w3.org/2000/svg" width="24" height="24" viewBox="0 0 24 24">
    <g fill="none" fill-rule="nonzero">
        <circle cx="12" cy="12" r="12" fill="#95C942"/>
        <path fill="#FFF" d="M9.482 17.49a.216.216 0 0 1-.158-.069l-3.448-3.7-4.832-.293a.216.216 0 0 1-.2-.215v-.164c0-.113.087-.208.2-.216l6.33-.384h.013c.06 0 .117.025.158.069l1.65 1.77 4.83-7.729c.04-.063.109-.1.183-.1h.008a.216.216 0 0 1 .183.115l2.9 5.453 5.637.342c.113.008.2.103.2.216v.165a.216.216 0 0 1-.2.216l-7.08.429h-.016a.216.216 0 0 1-.19-.115l-1.571-2.953-4.413 7.062a.216.216 0 0 1-.163.1l-.021.001z"/>
    </g>
</svg>
