<svg xmlns="http://www.w3.org/2000/svg" xmlns:xlink="http://www.w3.org/1999/xlink" width="16" height="16" viewBox="0 0 16 16">
    <defs>
        <path id="a" d="M7.395 1.922A4.518 4.518 0 0 1 7.411 0H.05v1.922h7.345z"/>
    </defs>
    <g fill="#006089" fill-rule="evenodd">
        <g transform="translate(0 5.5)">
            <path d="M9.469 10H4.63c-.141 0-.257-.104-.257-.23V8.309c0-.127.116-.231.257-.231h4.838c.142 0 .257.104.257.231V9.77c0 .126-.115.23-.257.23M11.652 5.959H2.447c-.14 0-.257-.104-.257-.23V4.268c0-.127.116-.231.257-.231h9.205c.142 0 .257.104.257.231v1.461c0 .126-.115.23-.257.23"/>
            <use xlink:href="#a"/>
        </g>
        <path d="M11.41 3.927l-2.348-.002v1.148h2.35l-.003 2.312h1.162l.001-2.306h2.358l.007-1.152-2.364.006-.004-2.317-1.16-.001v2.312zM16 4.5a4 4 0 1 1-8 0 4 4 0 0 1 8 0z"/>
    </g>
</svg>
