<svg xmlns="http://www.w3.org/2000/svg" width="16" height="16" viewBox="0 0 16 16">
    <path fill="#00A1DD" fill-rule="evenodd" d="M3.703 12.852h2.962V9.705H3.703v3.147zm10.615-3.147v5.508c0 .435-.331.787-.74.787h-1.482V9.705H9.134V16H2.222c-.41 0-.74-.352-.74-.787V9.705L7.9 2.885l6.418 6.82zM15.8 8.393c0 .435-.331.787-.74.787a.713.713 0 0 1-.504-.213l-.002.002-6.635-7.05L7.9 1.9 1.26 8.954a.717.717 0 0 1-.52.226C.33 9.18 0 8.828 0 8.393c0-.223.087-.423.228-.567L7.366.242A.718.718 0 0 1 7.9 0l.039.001h.006a.703.703 0 0 1 .496.25V.25l2.915 3.096v-.723c0-.434.331-.787.74-.787.41 0 .741.353.741.787V4.92l2.764 2.937-.002.002c.123.14.2.327.2.534z"/>
</svg>
