<svg xmlns="http://www.w3.org/2000/svg" width="21" height="16" viewBox="0 0 21 16">
    <g fill="none" fill-rule="nonzero">
        <path fill="#006089" d="M15.5 16H1.448A1.45 1.45 0 0 1 0 14.522V4.347a1.45 1.45 0 0 1 1.448-1.479h14.078a1.45 1.45 0 0 1 1.448 1.48v10.174A1.493 1.493 0 0 1 15.5 16z"/>
        <circle cx="2.13" cy="5.081" r="1" fill="#FFF"/>
        <circle cx="3.52" cy="5.081" r="1" fill="#FFF"/>
        <circle cx="4.881" cy="5.081" r="1" fill="#FFF"/>
        <path fill="#FFF" d="M15.853 6.98H1.483a.3.3 0 1 1 0-.593h14.37a.279.279 0 0 1 .3.3.3.3 0 0 1-.3.292z"/>
        <path fill="#006089" d="M17.22 12.363V4.2a1.444 1.444 0 0 0-1.42-1.479H3.026v-1.3A1.418 1.418 0 0 1 4.474 0h14.078A1.45 1.45 0 0 1 20 1.478v10.175a1.439 1.439 0 0 1-1.39 1.48h-1.1a.277.277 0 0 1-.29-.3v-.47z"/>
    </g>
</svg>
