<svg xmlns="http://www.w3.org/2000/svg" width="9" height="12" viewBox="0 0 9 12">
    <path fill="#EEEFF2" fill-rule="nonzero" d="M7.742 6.249c-.378-.474-.805-.71-1.28-.71V1.846c.25 0 .466-.091.648-.274a.887.887 0 0 0 .275-.649.887.887 0 0 0-.275-.649A.887.887 0 0 0 6.461 0H1.846a.887.887 0 0 0-.649.274.887.887 0 0 0-.274.65c0 .25.091.466.274.648.183.183.4.274.65.274v3.692c-.477 0-.903.237-1.28.71A2.497 2.497 0 0 0 0 7.847c0 .125.046.233.137.325.091.091.2.137.325.137h2.913l.548 3.497c.024.13.101.195.23.195h.008c.058 0 .107-.02.148-.061.04-.041.066-.09.076-.148l.367-3.483h3.094a.444.444 0 0 0 .325-.137.443.443 0 0 0 .137-.325c0-.591-.19-1.124-.566-1.597zm-4.28-.941a.225.225 0 0 1-.065.166.225.225 0 0 1-.166.065.225.225 0 0 1-.166-.065A.225.225 0 0 1 3 5.308v-3.23c0-.068.022-.124.065-.167a.225.225 0 0 1 .166-.065c.067 0 .122.022.166.065a.225.225 0 0 1 .065.166v3.23z"/>
</svg>
