<svg xmlns="http://www.w3.org/2000/svg" width="8" height="12" viewBox="0 0 8 12">
    <path fill="#EEEFF2" fill-rule="nonzero" d="M7.455 6.249c-.364-.474-.775-.71-1.233-.71V1.846c.24 0 .45-.091.625-.274a.904.904 0 0 0 .264-.649.904.904 0 0 0-.264-.649A.839.839 0 0 0 6.222 0H1.778c-.241 0-.45.091-.625.274a.904.904 0 0 0-.264.65c0 .25.088.466.264.648a.84.84 0 0 0 .625.274v3.692c-.459 0-.87.237-1.233.71A2.557 2.557 0 0 0 0 7.847c0 .125.044.233.132.325a.42.42 0 0 0 .313.137H3.25l.528 3.497c.023.13.097.195.222.195h.007a.19.19 0 0 0 .142-.061.27.27 0 0 0 .073-.148l.354-3.483h2.98a.42.42 0 0 0 .312-.137A.452.452 0 0 0 8 7.846c0-.591-.182-1.124-.545-1.597zm-4.122-.941a.23.23 0 0 1-.062.166.212.212 0 0 1-.16.065.212.212 0 0 1-.16-.065.23.23 0 0 1-.062-.166v-3.23a.23.23 0 0 1 .062-.167.212.212 0 0 1 .16-.065c.065 0 .118.022.16.065a.23.23 0 0 1 .062.166v3.23z"/>
</svg>
