<svg xmlns="http://www.w3.org/2000/svg" width="16" height="16" viewBox="0 0 16 16">
    <path fill="#006089" fill-rule="evenodd" d="M14.5 4.811A7.06 7.06 0 0 0 8.017 0a7.189 7.189 0 0 0-6.6 5.114l2.2.962a4.809 4.809 0 0 1 4.4-3.415A4.7 4.7 0 0 1 12.3 5.793l-1.6.736 4.1 2.678L16 4.132l-1.5.68v-.001zm-6.483 8.528a4.773 4.773 0 0 1-4.3-3.17L5.3 9.49 1.25 6.868 0 11.812l1.517-.68A7.147 7.147 0 0 0 8.016 16a7.088 7.088 0 0 0 6.566-5.038L12.4 9.981a4.709 4.709 0 0 1-4.384 3.359l.001-.001z" opacity=".2"/>
</svg>
