<svg xmlns="http://www.w3.org/2000/svg" xmlns:xlink="http://www.w3.org/1999/xlink" width="16" height="16" viewBox="0 0 16 16">
    <defs>
        <path id="a" d="M7.963 15.985H0V0h15.925v15.985z"/>
    </defs>
    <g fill="none" fill-rule="evenodd">
        <mask id="b" fill="#fff">
            <use xlink:href="#a"/>
        </mask>
        <path fill="#006089" d="M15.925 11.165c0 .55-.142 1.007-.426 1.373-.284.366-.678.549-1.182.549-.261 0-.508-.06-.741-.178a2.323 2.323 0 0 1-.565-.386 2.49 2.49 0 0 0-.54-.387 1.397 1.397 0 0 0-.68-.178c-.702 0-1.053.42-1.053 1.261 0 .265.051.654.153 1.17.102.515.15.905.144 1.169v.05c-.14 0-.246.004-.316.01-.217.021-.528.06-.933.118-.405.057-.774.103-1.106.137-.331.034-.644.051-.938.051-.389 0-.717-.09-.985-.27-.268-.18-.402-.462-.402-.849 0-.25.056-.491.167-.722.112-.23.233-.422.364-.574a2.5 2.5 0 0 0 .364-.6c.111-.247.167-.51.167-.788 0-.536-.172-.954-.517-1.256-.344-.302-.775-.452-1.292-.452-.536 0-.992.154-1.368.462-.377.309-.565.74-.565 1.297 0 .291.048.573.144.844.095.27.202.49.32.656.118.166.225.345.32.539.097.193.144.364.144.513 0 .305-.146.607-.44.905-.236.237-.61.356-1.12.356-.606 0-1.387-.081-2.344-.244a2.477 2.477 0 0 0-.264-.04 2.483 2.483 0 0 1-.263-.041l-.124-.02a.07.07 0 0 1-.029-.01c-.013 0-.019-.004-.019-.011V5.206c.013.007.069.019.167.036.1.017.208.034.326.05.118.018.186.03.206.036.957.163 1.738.244 2.344.244.51 0 .884-.118 1.12-.356.294-.298.44-.6.44-.905 0-.149-.047-.32-.143-.513a3.97 3.97 0 0 0-.32-.539 2.676 2.676 0 0 1-.321-.656 2.517 2.517 0 0 1-.144-.844c0-.556.188-.988.565-1.296C4.616.154 5.076 0 5.618 0c.51 0 .938.15 1.282.453.345.301.517.72.517 1.255 0 .278-.056.54-.167.788a2.5 2.5 0 0 1-.364.6c-.13.153-.252.344-.364.575-.111.23-.167.471-.167.722 0 .386.134.67.402.849.268.18.596.27.985.27.409 0 .983-.051 1.723-.153.74-.102 1.26-.16 1.56-.173v.02a1.242 1.242 0 0 0-.033.178c-.016.105-.032.22-.048.346a2.21 2.21 0 0 1-.034.219c-.153 1.016-.23 1.847-.23 2.49 0 .543.112.94.336 1.19.28.312.564.468.851.468.14 0 .302-.05.484-.152.181-.102.35-.215.507-.34.156-.126.362-.24.617-.341.255-.102.52-.153.794-.153.524 0 .93.2 1.22.6.291.4.436.885.436 1.454" mask="url(#b)"/>
    </g>
</svg>
