<svg xmlns="http://www.w3.org/2000/svg" xmlns:xlink="http://www.w3.org/1999/xlink" width="16" height="16" viewBox="0 0 16 16">
    <defs>
        <path id="a" d="M15.498 0H0v14.524h15.498V0z"/>
    </defs>
    <g fill="none" fill-rule="evenodd" transform="translate(.2 .5)">
        <path fill="#FFA80E" d="M11.378 12.286h1.735v-5.02h-1.735v5.02zm0 2.245h1.735v-1.459h-1.735v1.46z"/>
        <mask id="b" fill="#fff">
            <use xlink:href="#a"/>
        </mask>
        <path fill="#FFA80E" d="M15.498 2.458v1.154c0 .088-.4.174-1.202.256a2.418 2.418 0 0 1-.243.429c.275.621.412 1 .412 1.138 0 .022-.01.041-.032.058-.657.39-.99.585-1.001.585-.043 0-.167-.129-.372-.387a8.829 8.829 0 0 1-.42-.561 2.612 2.612 0 0 1-.241.016c-.054 0-.135-.005-.243-.016a8.835 8.835 0 0 1-.42.56c-.204.26-.328.388-.37.388-.011 0-.345-.195-1.002-.585-.021-.017-.032-.036-.032-.058 0-.137.137-.517.412-1.138a2.417 2.417 0 0 1-.242-.429C9.7 3.786 9.299 3.7 9.299 3.612V2.458c0-.088.4-.173 1.203-.256.07-.16.15-.302.242-.429-.275-.621-.412-1-.412-1.138 0-.022.01-.041.032-.058.022-.01.116-.066.283-.165l.476-.28c.15-.088.232-.132.242-.132.043 0 .167.128.372.384.204.255.344.44.42.556.107-.01.188-.016.242-.016.053 0 .134.005.242.016.274-.39.522-.698.742-.923L13.432 0c.021 0 .355.192 1 .577.022.017.033.036.033.058 0 .138-.137.517-.412 1.138.092.127.173.27.243.43.801.082 1.202.167 1.202.255m-5.166 4.05v1.525a.272.272 0 0 1-.056.16c-.038.053-.081.082-.13.087l-1.25.198c-.06.193-.146.402-.259.627.183.264.425.58.727.949a.29.29 0 0 1 .056.165.214.214 0 0 1-.056.156 8.547 8.547 0 0 1-.666.738c-.32.328-.532.491-.634.491a.287.287 0 0 1-.17-.058l-.928-.742c-.199.105-.406.19-.621.256-.06.594-.121 1.02-.186 1.278-.038.132-.118.198-.242.198H4.415a.243.243 0 0 1-.161-.062.214.214 0 0 1-.08-.144l-.186-1.262a3.497 3.497 0 0 1-.606-.256l-.952.734c-.038.039-.092.058-.162.058a.264.264 0 0 1-.17-.066c-.774-.731-1.162-1.171-1.162-1.32a.28.28 0 0 1 .057-.156c.054-.077.164-.223.33-.437.168-.215.294-.382.38-.503a4.268 4.268 0 0 1-.282-.677L.194 8.247a.198.198 0 0 1-.137-.078A.25.25 0 0 1 0 8.01V6.481c0-.055.019-.108.057-.16.037-.053.08-.081.129-.087l1.25-.198c.06-.192.146-.401.26-.627-.184-.264-.426-.58-.727-.948a.319.319 0 0 1-.057-.165c0-.066.019-.121.057-.165.118-.165.339-.41.662-.734.322-.324.535-.487.637-.487.06 0 .116.02.17.058l.928.742c.183-.099.39-.187.622-.264.059-.593.12-1.017.185-1.27.038-.132.119-.198.242-.198h1.502c.059 0 .113.021.161.062.049.041.076.09.08.145l.187 1.261c.183.055.384.14.605.256l.952-.734a.233.233 0 0 1 .162-.058c.06 0 .116.022.17.066.774.732 1.162 1.171 1.162 1.32a.28.28 0 0 1-.057.157c-.064.088-.177.236-.339.445a9.451 9.451 0 0 0-.363.495c.124.264.215.49.274.676l1.227.19c.054.01.1.04.138.086.037.047.056.1.056.161m3.1-3.472c0-.286-.102-.533-.307-.742a.983.983 0 0 0-.726-.314.983.983 0 0 0-.727.314 1.025 1.025 0 0 0-.307.742c0 .291.101.54.303.746.202.207.445.31.73.31a.985.985 0 0 0 .731-.31c.202-.206.303-.455.303-.746m-6.2 4.223c0-.583-.201-1.08-.605-1.493a1.97 1.97 0 0 0-1.46-.619 1.97 1.97 0 0 0-1.462.619c-.404.412-.605.91-.605 1.493 0 .583.201 1.08.605 1.493.404.412.89.618 1.461.618a1.97 1.97 0 0 0 1.461-.618c.404-.413.606-.91.606-1.493" mask="url(#b)"/>
    </g>
</svg>
