<svg xmlns="http://www.w3.org/2000/svg" width="16" height="16" viewBox="0 0 16 16">
    <g fill="#00A1DD" fill-rule="evenodd">
        <path d="M0 9.545c0 .94 2.92 1.687 6.5 1.687l.078-.001v.783c0 .035.009.067.024.097l.029.043c.035.04.077.063.126.068l1.128.172a3.6 3.6 0 0 0 .26.588 13.89 13.89 0 0 1-.366.458 23.9 23.9 0 0 1-1.279.034c-3.58 0-6.5-.772-6.5-1.688V9.545zM0 6.17c0 .94 2.92 1.688 6.5 1.688.631 0 1.242-.024 1.82-.067-.07.057-.152.13-.242.215-.297.282-.5.495-.608.638a.206.206 0 0 0-.052.144c0 .043.017.09.052.143.277.32.5.595.668.825a4.085 4.085 0 0 0-.145.299c-.478.029-.978.044-1.493.044-3.58 0-6.5-.747-6.5-1.687V6.17zm10.307 1.367c-.021.15-.041.321-.062.512a3.683 3.683 0 0 0-.571.23l-.72-.545c.459-.048.891-.11 1.29-.183zM13 6.17v2.078l-.03.024a3.66 3.66 0 0 0-.428-.182l-.13-.04-.168-1.086c.482-.236.756-.506.756-.794zm0-3.374v2.242c0 .94-2.92 1.687-6.5 1.687S0 5.978 0 5.038V2.796c0 .94 2.92 1.687 6.5 1.687S13 3.736 13 2.796zM6.5 0c3.58 0 6.5.747 6.5 1.687 0 .434-.635.82-1.65 1.133-1.194.338-2.92.554-4.85.554-1.93 0-3.656-.216-4.85-.554C.635 2.507 0 2.121 0 1.687 0 .747 2.92 0 6.5 0z"/>
        <path d="M15.25 10.931v1.157a.203.203 0 0 1-.044.121c-.029.04-.062.062-.1.066l-.968.15a3.08 3.08 0 0 1-.2.475c.141.2.329.44.562.719.03.041.044.083.044.125a.16.16 0 0 1-.044.118 6.526 6.526 0 0 1-.516.56c-.248.248-.411.372-.49.372a.225.225 0 0 1-.131-.044l-.72-.562c-.153.079-.314.143-.48.193-.046.45-.094.773-.144.969-.03.1-.092.15-.188.15H10.67a.19.19 0 0 1-.125-.047.161.161 0 0 1-.063-.11l-.143-.956a2.74 2.74 0 0 1-.47-.193l-.737.556c-.029.03-.07.044-.125.044a.207.207 0 0 1-.131-.05c-.6-.554-.9-.888-.9-1a.21.21 0 0 1 .044-.119c.041-.058.127-.169.256-.331.13-.163.227-.29.294-.382a3.197 3.197 0 0 1-.219-.512l-.95-.15a.154.154 0 0 1-.106-.06.186.186 0 0 1-.044-.121v-1.157c0-.041.015-.082.044-.121.029-.04.062-.062.1-.066l.968-.15c.046-.146.113-.304.2-.475-.141-.2-.329-.44-.562-.719a.238.238 0 0 1-.044-.125c0-.05.015-.091.044-.125.092-.125.262-.31.512-.556.25-.246.415-.369.494-.369.046 0 .09.015.132.044l.718.562c.142-.074.302-.141.482-.2.045-.45.093-.77.143-.962.03-.1.092-.15.188-.15h1.162a.19.19 0 0 1 .125.047.161.161 0 0 1 .063.11l.144.956c.141.041.297.106.468.193l.738-.556a.183.183 0 0 1 .125-.044c.046 0 .09.017.131.05.6.554.9.888.9 1a.21.21 0 0 1-.044.119c-.05.067-.137.18-.262.338a7.172 7.172 0 0 0-.281.375c.095.2.166.37.212.512l.95.144c.042.008.077.03.106.065.03.036.044.076.044.122m-2.4.569c0-.442-.156-.819-.469-1.131A1.542 1.542 0 0 0 11.25 9.9c-.442 0-.819.156-1.131.469-.313.312-.469.69-.469 1.131 0 .442.156.819.469 1.131.312.313.69.469 1.131.469.442 0 .819-.156 1.131-.469.313-.312.469-.69.469-1.131"/>
    </g>
</svg>
