<svg xmlns="http://www.w3.org/2000/svg" width="16" height="16" viewBox="0 0 16 16">
    <path fill="#006089" fill-rule="nonzero" d="M15 4.5c0-1.322-1.201-2.414-2.74-2.494-1.54-.08-2.885.881-3.072 2.193-.186 1.312.85 2.521 2.367 2.761.005.448-.157.886-.463 1.25-.638.68-1.936.788-3.307.897a9.67 9.67 0 0 0-2.931.528 2.952 2.952 0 0 0-.354.178V4.95c1.467-.257 2.47-1.424 2.319-2.7C6.669.971 5.414 0 3.917 0S1.165.973 1.015 2.25c-.15 1.276.851 2.443 2.318 2.7v6.1c-1.448.254-2.445 1.397-2.32 2.66.126 1.262 1.333 2.244 2.81 2.285 1.478.042 2.758-.872 2.978-2.125.22-1.252-.688-2.448-2.114-2.782.153-.248.396-.445.692-.563a8.698 8.698 0 0 1 2.512-.428c1.553-.125 3.161-.253 4.107-1.265.478-.547.732-1.214.722-1.897C14.052 6.682 15 5.67 15 4.5zm-12.833-2c0-.828.783-1.5 1.75-1.5.966 0 1.75.672 1.75 1.5S4.883 4 3.917 4c-.967 0-1.75-.672-1.75-1.5zm3.5 11c0 .828-.782 1.499-1.748 1.5-.965.001-1.75-.668-1.752-1.496-.003-.827.777-1.5 1.742-1.504h.022c.96.008 1.735.677 1.736 1.5zm6.847-7.547l-.43.047c-.927.002-1.696-.615-1.756-1.407-.06-.793.611-1.489 1.53-1.589.92-.1 1.772.43 1.945 1.21.174.781-.391 1.543-1.29 1.74z"/>
</svg>
