<svg xmlns="http://www.w3.org/2000/svg" width="15" height="16" viewBox="0 0 15 16">
    <g fill="#006089" fill-rule="nonzero" opacity=".2">
        <path d="M6.188 12.562H4.423V.286A.273.273 0 0 0 4.341.08.291.291 0 0 0 4.129 0H2.365a.29.29 0 0 0-.212.08.274.274 0 0 0-.082.205v12.277H.306c-.135 0-.227.06-.276.179-.049.113-.027.217.065.312l2.94 2.855c.068.053.138.08.212.08.08 0 .15-.027.211-.08l2.932-2.846a.33.33 0 0 0 .092-.214.275.275 0 0 0-.083-.206.292.292 0 0 0-.211-.08zM13.053 14.971h-2.28c-.128 0-.22.006-.275.018l-.129.018v-.018l.102-.098c.091-.107.156-.184.193-.232l3.39-4.729v-.794h-5.21v2.043h1.103v-1.026h2.132c.11 0 .202-.009.275-.026a.65.65 0 0 0 .069-.005.767.767 0 0 1 .06-.004v.026l-.102.08c-.054.054-.119.134-.193.242l-3.39 4.72v.802h5.367V13.91h-1.112v1.061zM14.34 5.907L12.225 0h-1.49L8.624 5.907H7.98v.945h2.637v-.946h-.689l.432-1.284h2.233l.432 1.285h-.689v.945h2.647v-.946h-.644zM10.662 3.64l.671-1.945a3.256 3.256 0 0 0 .101-.42l.028-.178h.037c0 .024.006.084.018.179l.11.42.662 1.944h-1.627z"/>
    </g>
</svg>
