<svg xmlns="http://www.w3.org/2000/svg" width="15" height="16" viewBox="0 0 15 16">
    <g fill="#00A1DD" fill-rule="nonzero">
        <path d="M6.188 12.562H4.423V.286A.273.273 0 0 0 4.341.08.291.291 0 0 0 4.129 0H2.365a.29.29 0 0 0-.212.08.274.274 0 0 0-.082.205v12.277H.306c-.135 0-.227.06-.276.179-.049.113-.027.217.065.312l2.94 2.855c.068.053.138.08.212.08.08 0 .15-.027.211-.08l2.932-2.846a.33.33 0 0 0 .092-.214.275.275 0 0 0-.083-.206.292.292 0 0 0-.211-.08zM14.34 15.043l-2.114-5.907h-1.49l-2.113 5.907H7.98v.945h2.638v-.945h-.69l.432-1.285h2.234l.431 1.285h-.689v.945h2.647v-.945h-.644zm-3.677-2.267l.671-1.945a3.255 3.255 0 0 0 .101-.42l.028-.177h.037c0 .024.006.083.018.178l.11.42.662 1.944h-1.627zM14.165 4.773h-1.112v1.062h-2.28a2.9 2.9 0 0 0-.274.009l-.13.027v-.027l.102-.09c.092-.106.156-.184.193-.231l3.39-4.729V0h-5.21v2.043h1.103V1.017h2.132c.11 0 .202-.009.275-.027a.658.658 0 0 0 .07-.004.648.648 0 0 1 .059-.005v.027l-.101.08a1.65 1.65 0 0 0-.193.241L8.798 6.05v.803h5.367V4.773z"/>
    </g>
</svg>
