<svg xmlns="http://www.w3.org/2000/svg" width="12" height="16" viewBox="0 0 12 16">
    <path fill="#006089" fill-rule="evenodd" d="M11.306 16H.694C.311 16 0 15.66 0 15.239V8.665c0-.42.31-.761.694-.761h1.152V4.366C1.94 1.926 3.772 0 6 0c2.228 0 4.06 1.926 4.154 4.366 0 .42-.31.761-.694.761-.384 0-.694-.34-.694-.761 0-1.677-1.24-3.036-2.77-3.036S3.227 2.69 3.227 4.366v3.538h8.079c.383 0 .694.34.694.761v6.582c-.004.417-.314.753-.694.753zm-5.31-6.574c-.626-.002-1.175.458-1.337 1.12-.163.663.1 1.363.643 1.706v1.473c0 .42.31.761.694.761.384 0 .694-.34.694-.761v-1.473c.543-.343.807-1.043.644-1.706-.163-.662-.712-1.122-1.338-1.12z"/>
</svg>
