<svg xmlns="http://www.w3.org/2000/svg" width="8" height="8" viewBox="0 0 8 8">
    <defs>
        <style>
            .cls-1{fill:#006089}
        </style>
    </defs>
    <path id="cog" d="M25.773 12.566l.718.4a.19.19 0 0 1 .092.226 3.957 3.957 0 0 1-.921 1.526.209.209 0 0 1-.25.036l-.717-.4a3.265 3.265 0 0 1-1.024.567v.793a.2.2 0 0 1-.158.189 4.4 4.4 0 0 1-1.84 0 .2.2 0 0 1-.158-.189v-.794a3.265 3.265 0 0 1-1.024-.567l-.717.4a.209.209 0 0 1-.25-.036 3.957 3.957 0 0 1-.921-1.526.19.19 0 0 1 .092-.226l.718-.4a2.99 2.99 0 0 1 0-1.132l-.718-.4a.19.19 0 0 1-.092-.226 3.957 3.957 0 0 1 .921-1.526.209.209 0 0 1 .25-.036l.717.4a3.265 3.265 0 0 1 1.024-.567v-.792a.2.2 0 0 1 .158-.189 4.4 4.4 0 0 1 1.84 0 .2.2 0 0 1 .158.189v.793a3.265 3.265 0 0 1 1.024.567l.717-.4a.209.209 0 0 1 .25.036 3.957 3.957 0 0 1 .921 1.526.19.19 0 0 1-.092.226l-.718.4a2.99 2.99 0 0 1 0 1.132zM23.94 12a1.349 1.349 0 1 0-1.348 1.29A1.322 1.322 0 0 0 23.94 12z" class="cls-1" transform="translate(-18.592 -7.999)"/>
</svg>
