<svg xmlns="http://www.w3.org/2000/svg" width="8" height="11" viewBox="0 0 8 11">
    <g fill="#FFF" fill-rule="nonzero">
        <path d="M1.5 3.548A1.452 1.452 0 1 1 0 5a1.475 1.475 0 0 1 1.5-1.452zM0 1.452A1.5 1.5 0 1 0 1.5 0 1.475 1.475 0 0 0 0 1.452zm0 7.1A1.5 1.5 0 1 0 1.5 7.1 1.475 1.475 0 0 0 0 8.548v.004zM6.5 3.548A1.452 1.452 0 1 1 5 5a1.475 1.475 0 0 1 1.5-1.452zM5 1.452A1.5 1.5 0 1 0 6.5 0 1.475 1.475 0 0 0 5 1.452zm0 7.1A1.5 1.5 0 1 0 6.5 7.1 1.475 1.475 0 0 0 5 8.548v.004z"/>
    </g>
</svg>
