<svg xmlns="http://www.w3.org/2000/svg" width="16" height="16" viewBox="0 0 16 16">
    <path fill="#E4E5EA" fill-rule="evenodd" d="M8.084 0c-4.45-.033-8 3.483-8.083 7.916-.083 4.45 3.567 8.083 8 8.083S16 12.4 16 8C16 3.6 12.517.035 8.084 0zm-.167 12.233c.3.1.484-.117.634-.317l.566-.717.234.167-.634.967c-.483.716-1.483 1.25-2.233.966-.4-.166-.7-.55-.566-1.033.4-1.466.816-3.033 1.2-4.4.05-.15.083-.316.083-.483 0-.233-.167-.483-.4-.483h-.4l.083-.233.083-.084 2.4-.4h.484l-1.6 5.6c-.067.233-.134.416.083.466l-.017-.016zm1.117-7.366c-.6 0-1.117-.434-1.117-1.034 0-.6.484-1.116 1.034-1.116.633 0 1.116.433 1.116 1.033 0 .6-.433 1.117-1.033 1.117z"/>
</svg>
