<svg xmlns="http://www.w3.org/2000/svg" width="16" height="16" viewBox="0 0 16 16">
    <defs>
        <style>
            .cls-1{fill:#fff;opacity:.7}
        </style>
    </defs>
    <path id="plus-circle" d="M16 8a8 8 0 1 0 8 8 8 8 0 0 0-8-8zm4.645 8.9a.388.388 0 0 1-.387.387H17.29v2.968a.388.388 0 0 1-.387.387H15.1a.388.388 0 0 1-.387-.387V17.29h-2.971a.388.388 0 0 1-.387-.387V15.1a.388.388 0 0 1 .387-.387h2.968v-2.971a.388.388 0 0 1 .387-.387H16.9a.388.388 0 0 1 .387.387v2.968h2.968a.388.388 0 0 1 .387.387z" class="cls-1" transform="translate(-8 -8)"/>
</svg>
