<svg xmlns="http://www.w3.org/2000/svg" width="21" height="16" viewBox="0 0 21 16">
    <path fill="#E4E5EA" fill-rule="evenodd" d="M16.3 9.465c.007.358-.138.702-.4.947l-5.28 5.194a1.424 1.424 0 0 1-.98.394 1.349 1.349 0 0 1-.972-.394L.972 8.05c-.3-.306-.535-.67-.69-1.07A3.2 3.2 0 0 1 0 5.747V1.354C-.001.994.147.651.41.406A1.33 1.33 0 0 1 1.38 0h4.49c.436.013.866.11 1.266.283.406.154.78.384 1.1.677l7.671 7.545c.26.251.405.598.4.96H16.3zM4.808 3.385c0-.363-.147-.71-.41-.96a1.3 1.3 0 0 0-.971-.394 1.346 1.346 0 0 0-.972.394 1.282 1.282 0 0 0-.41.96c0 .363.148.71.41.96.258.257.608.398.972.393.364.006.715-.136.973-.393a1.3 1.3 0 0 0 .41-.96h-.002zm15.637 6.08c.007.358-.139.702-.4.947l-5.294 5.194a1.4 1.4 0 0 1-.984.394 1.26 1.26 0 0 1-.64-.148 3 3 0 0 1-.575-.48l5.076-4.96c.262-.245.407-.589.4-.947a1.308 1.308 0 0 0-.4-.96L9.935.96a3.241 3.241 0 0 0-1.1-.677C8.435.109 8.005.013 7.57 0h2.416c.436.013.866.11 1.266.283.406.154.78.384 1.1.677l7.7 7.545c.257.252.4.6.393.96z"/>
</svg>
