<svg xmlns="http://www.w3.org/2000/svg" width="17" height="18.778" viewBox="0 0 17 18.778">
    <defs>
        <style>
            .cls-1{fill:#fff;stroke:#006089}
        </style>
    </defs>
    <path id="user-alt" d="M3.429 4.444A4.509 4.509 0 0 1 8 0a4.509 4.509 0 0 1 4.571 4.444A4.509 4.509 0 0 1 8 8.889a4.509 4.509 0 0 1-4.571-4.445zM12.571 10h-1.95a6.454 6.454 0 0 1-5.241 0H3.429A3.382 3.382 0 0 0 0 13.333v3.611a.845.845 0 0 0 .857.833h14.286a.845.845 0 0 0 .857-.833v-3.611A3.382 3.382 0 0 0 12.571 10z" class="cls-1" transform="translate(.5 .5)"/>
</svg>
