<svg xmlns="http://www.w3.org/2000/svg" width="18" height="20" viewBox="0 0 18 20">
    <defs>
        <style>
            .cls-1{fill:#fff;opacity:.8}
        </style>
    </defs>
    <path id="bell" d="M17.433 14.3c-.894-.869-2-1.951-2-6.174a6.306 6.306 0 0 0-5.37-6.165 1.22 1.22 0 0 0 .228-.71 1.286 1.286 0 0 0-2.571 0 1.22 1.22 0 0 0 .228.71 6.306 6.306 0 0 0-5.37 6.165c0 4.223-1.111 5.305-2 6.174a1.87 1.87 0 0 0 1.364 3.2h4.5a2.572 2.572 0 0 0 5.143 0h4.5a1.87 1.87 0 0 0 1.348-3.2zM9 18.438a.313.313 0 1 1 0 .625A1.587 1.587 0 0 1 7.393 17.5h.643a.952.952 0 0 0 .964.938z" class="cls-1"/>
</svg>
