<svg xmlns="http://www.w3.org/2000/svg" width="16" height="18" viewBox="0 0 16 18">
    <defs>
        <style>
            .cls-1{fill:#fff;opacity:.8}
        </style>
    </defs>
    <path id="cog" d="M32.953 18.273l1.436.893a.452.452 0 0 1 .184.508 9.171 9.171 0 0 1-1.843 3.433.384.384 0 0 1-.5.082L30.8 22.3a6.362 6.362 0 0 1-2.047 1.275v1.785a.43.43 0 0 1-.316.425 7.837 7.837 0 0 1-3.68 0 .431.431 0 0 1-.317-.425v-1.79a6.361 6.361 0 0 1-2.052-1.27l-1.435.893a.384.384 0 0 1-.5-.082 9.171 9.171 0 0 1-1.843-3.433.452.452 0 0 1 .184-.508l1.436-.893a7.553 7.553 0 0 1 0-2.548l-1.436-.893a.452.452 0 0 1-.184-.508 9.171 9.171 0 0 1 1.843-3.433.384.384 0 0 1 .5-.082l1.435.893a6.362 6.362 0 0 1 2.047-1.275V8.644a.43.43 0 0 1 .316-.425 7.837 7.837 0 0 1 3.68 0 .431.431 0 0 1 .317.425v1.785A6.361 6.361 0 0 1 30.8 11.7l1.435-.893a.384.384 0 0 1 .5.082 9.171 9.171 0 0 1 1.843 3.433.452.452 0 0 1-.184.508l-1.436.893a7.553 7.553 0 0 1-.005 2.55zM29.288 17a2.7 2.7 0 1 0-5.388 0 2.7 2.7 0 1 0 5.392 0z" class="cls-1" transform="translate(-18.592 -7.999)"/>
</svg>
