<svg xmlns="http://www.w3.org/2000/svg" width="16" height="16" viewBox="0 0 16 16">
    <path fill="#FFF" fill-rule="evenodd" d="M16 1.375c-.75 1-1.5 1.875-2.25 2.875l1.5 1.5c-1.75.125-3.625.25-5.375.375l.375-5.25c.5.5 1.125.875 1.625 1.375.875-.75 1.875-1.5 2.75-2.25L16 1.375zM14.625 16c-.875-.75-1.875-1.5-2.75-2.25-.5.5-1.125 1-1.625 1.5-.125-1.75-.25-3.625-.375-5.375 1.75.125 3.625.25 5.375.375-.5.5-1 1.125-1.5 1.625.75.875 1.5 1.875 2.25 2.75L14.625 16zM2.25 11.875c-.5-.5-1-1.125-1.5-1.625 1.75-.125 3.625-.25 5.375-.375-.125 1.75-.25 3.625-.375 5.375l-1.5-1.5c-1 .75-1.875 1.5-2.875 2.25L0 14.625c.75-.875 1.5-1.875 2.25-2.75zM1.375 0c1 .75 1.875 1.5 2.875 2.25.5-.5 1-.875 1.5-1.375l.375 5.25C4.375 6 2.5 5.875.75 5.75l1.5-1.5C1.5 3.25.75 2.375 0 1.375L1.375 0z"/>
</svg>
