<svg xmlns="http://www.w3.org/2000/svg" width="17" height="16" viewBox="0 0 17 16">
    <path fill="#006089" fill-rule="evenodd" d="M8 0c4.407 0 8.001.887 8.001 2.004 0 .515-.781.973-2.031 1.345-1.47.4-3.594.658-5.97.658-2.375 0-4.5-.257-5.969-.658C.781 2.977 0 2.519 0 2.004 0 .887 3.594 0 8 0zm8.001 13.996c0 1.117-3.594 2.004-8 2.004C3.594 16 0 15.084 0 13.996v-2.661c0 1.116 3.594 2.003 8 2.003 4.407 0 8.001-.887 8.001-2.003v2.661zm0-4.007c0 1.117-3.594 2.004-8 2.004C3.594 11.993 0 11.106 0 9.989V7.327c0 1.117 3.594 2.004 8 2.004 4.407 0 8.001-.887 8.001-2.004V9.99zm0-4.007c0 1.116-3.594 2.004-8 2.004C3.594 7.986 0 7.098 0 5.982V3.32c0 1.116 3.594 2.004 8 2.004 4.407 0 8.001-.888 8.001-2.004v2.662z"/>
</svg>
