<svg xmlns="http://www.w3.org/2000/svg" width="16" height="16" viewBox="0 0 16 16">
    <g fill="none" fill-rule="evenodd">
        <path fill="#FFF" d="M12.254 1.232a8.375 8.375 0 0 1 1.382 4.645c0 4.679-3.813 8.491-8.491 8.491a7.996 7.996 0 0 1-2.381-.35 8.023 8.023 0 0 0 5.244 1.949A7.994 7.994 0 0 0 16 7.975a7.944 7.944 0 0 0-3.746-6.76v.017z"/>
        <path fill="#E4E5EA" d="M12.254 1.232A7.994 7.994 0 0 0 0 7.992a8.01 8.01 0 0 0 2.764 6.043c.749.217 1.548.35 2.38.35 4.68 0 8.492-3.813 8.492-8.491 0-1.732-.516-3.33-1.382-4.662z"/>
    </g>
</svg>
