<svg xmlns="http://www.w3.org/2000/svg" width="20" height="16" viewBox="0 0 20 16">
    <g fill="#E4E5EA" fill-rule="nonzero">
        <path d="M15.526 2.868a1.45 1.45 0 0 1 1.448 1.48v10.174A1.493 1.493 0 0 1 15.5 16H1.448A1.45 1.45 0 0 1 0 14.522V4.347a1.45 1.45 0 0 1 1.448-1.479h14.078zM1.483 6.388a.3.3 0 1 0 0 .591h14.37a.3.3 0 0 0 .3-.292.279.279 0 0 0-.3-.3zm.647-1.75a.444.444 0 1 0 0 .887.444.444 0 0 0 0-.888zm1.39 0a.444.444 0 1 0 0 .887.444.444 0 0 0 0-.888zm1.361 0a.444.444 0 1 0 0 .887.444.444 0 0 0 0-.888z"/>
        <path d="M17.22 12.363V4.2a1.444 1.444 0 0 0-1.42-1.479H3.026v-1.3A1.418 1.418 0 0 1 4.474 0h14.078A1.45 1.45 0 0 1 20 1.478v10.175a1.439 1.439 0 0 1-1.39 1.48h-1.1a.277.277 0 0 1-.29-.3v-.47z"/>
    </g>
</svg>
