<svg xmlns="http://www.w3.org/2000/svg" width="20" height="16" viewBox="0 0 20 16">
    <defs>
        <style>
            .cls-1{fill:#e4e5ea}.cls-2{fill:#041e2b}.cls-3{fill:#898c95}
        </style>
    </defs>
    <g id="noun_Browsers_378110" transform="translate(-6 -6.4)">
        <g id="Group_92" data-name="Group 92" transform="translate(6 9.268)">
            <g id="Group_91" data-name="Group 91">
                <path id="Path_41" d="M21.5 30.932H7.448A1.45 1.45 0 0 1 6 29.454V19.279A1.45 1.45 0 0 1 7.448 17.8h14.078a1.45 1.45 0 0 1 1.448 1.479v10.175a1.493 1.493 0 0 1-1.474 1.478z" class="cls-1" data-name="Path 41" transform="translate(-6 -17.8)"/>
            </g>
        </g>
        <g id="Group_99" data-name="Group 99" transform="translate(7.686 11.037)">
            <g id="Group_94" data-name="Group 94">
                <g id="Group_93" data-name="Group 93">
                    <circle id="Ellipse_2" cx=".444" cy=".444" r=".444" class="cls-2" data-name="Ellipse 2"/>
                </g>
            </g>
            <g id="Group_96" data-name="Group 96" transform="translate(1.39)">
                <g id="Group_95" data-name="Group 95">
                    <circle id="Ellipse_3" cx=".444" cy=".444" r=".444" class="cls-2" data-name="Ellipse 3"/>
                </g>
            </g>
            <g id="Group_98" data-name="Group 98" transform="translate(2.751)">
                <g id="Group_97" data-name="Group 97">
                    <circle id="Ellipse_4" cx=".444" cy=".444" r=".444" class="cls-2" data-name="Ellipse 4"/>
                </g>
            </g>
        </g>
        <g id="Group_101" data-name="Group 101" transform="translate(7.183 12.787)">
            <g id="Group_100" data-name="Group 100">
                <path id="Path_42" d="M24.67 29.292H10.3a.3.3 0 1 1 0-.592h14.37a.279.279 0 0 1 .3.3.3.3 0 0 1-.3.292z" class="cls-2" data-name="Path 42" transform="translate(-10 -28.7)"/>
            </g>
        </g>
        <g id="Group_102" data-name="Group 102" transform="translate(9.026 6.4)">
            <path id="Path_43" d="M32.593 18.763V10.6a1.444 1.444 0 0 0-1.419-1.479H18.4V7.82a1.418 1.418 0 0 1 1.448-1.42h14.078a1.45 1.45 0 0 1 1.448 1.479v10.175a1.439 1.439 0 0 1-1.39 1.479h-1.1a.277.277 0 0 1-.29-.3z" class="cls-3" data-name="Path 43" transform="translate(-18.4 -6.4)"/>
        </g>
    </g>
</svg>
