<svg xmlns="http://www.w3.org/2000/svg" width="12" height="18" viewBox="0 0 12 18">
    <defs>
        <style>
            .cls-1{fill:#fff;opacity:.8}
        </style>
    </defs>
    <path id="question" d="M31.613 0a6.558 6.558 0 0 0-5.869 3.2.862.862 0 0 0 .177 1.156l1.471 1.15a.8.8 0 0 0 1.134-.146c.854-1.1 1.488-1.738 2.822-1.738 1.049 0 2.347.7 2.347 1.745 0 .793-.635 1.2-1.671 1.8-1.208.7-2.806 1.567-2.806 3.741v.344a.831.831 0 0 0 .818.844h2.471a.831.831 0 0 0 .818-.844v-.2c0-1.507 4.272-1.57 4.272-5.647C37.6 2.329 34.508 0 31.613 0zm-.342 13.129a2.436 2.436 0 1 0 2.362 2.435 2.4 2.4 0 0 0-2.361-2.435z" class="cls-1" transform="translate(-25.597)"/>
</svg>
