<svg xmlns="http://www.w3.org/2000/svg" width="20" height="20" viewBox="0 0 20 20">
    <defs>
        <style>
            .cls-1{fill:#fff;opacity:.8}
        </style>
    </defs>
    <path id="times" d="M16.776 83.583l2.807-2.807a1.245 1.245 0 0 0 0-1.765l-5.061-5.061 5.061-5.061a1.245 1.245 0 0 0 0-1.765l-2.807-2.807a1.245 1.245 0 0 0-1.765 0L9.95 69.378l-5.061-5.061a1.245 1.245 0 0 0-1.765 0L.317 67.124a1.245 1.245 0 0 0 0 1.765l5.061 5.061-5.061 5.061a1.245 1.245 0 0 0 0 1.765l2.807 2.807a1.245 1.245 0 0 0 1.765 0l5.061-5.061 5.061 5.061a1.254 1.254 0 0 0 1.765 0z" class="cls-1" transform="translate(.05 -63.95)"/>
</svg>
