<svg xmlns="http://www.w3.org/2000/svg" width="16" height="16" viewBox="0 0 16 16">
    <g fill="#006089" fill-rule="nonzero" opacity=".2">
        <path d="M6.517 0H.333A.333.333 0 0 0 0 .333v6.184c0 .184.15.333.333.333h6.184c.184 0 .333-.149.333-.333V.333A.333.333 0 0 0 6.517 0zM15.583 0H9.4a.333.333 0 0 0-.334.333v6.184c0 .184.15.333.334.333h6.183c.184 0 .334-.149.334-.333V.333A.333.333 0 0 0 15.583 0zM6.517 9.066H.333A.333.333 0 0 0 0 9.4v6.183c0 .184.15.334.333.334h6.184c.184 0 .333-.15.333-.334V9.4a.334.334 0 0 0-.333-.334zM15.583 9.066H9.4a.333.333 0 0 0-.334.334v6.183c0 .184.15.334.334.334h6.183c.184 0 .334-.15.334-.334V9.4a.333.333 0 0 0-.334-.334z"/>
    </g>
</svg>
