<svg xmlns="http://www.w3.org/2000/svg" width="20" height="20" viewBox="0 0 20 20">
    <path fill="#FFF" fill-rule="evenodd" d="M19.598 12.99c.204-.664.339-1.349.402-2.043l-2.608-1.29a7.37 7.37 0 0 0-.052-.581l2.33-1.744a10.05 10.05 0 0 0-.767-1.935l-2.888.327a7.344 7.344 0 0 0-.359-.458l1.02-2.733a9.963 9.963 0 0 0-1.688-1.212l-2.256 1.843a7.42 7.42 0 0 0-.547-.192L11.57.122A10 10 0 0 0 9.495.013l-.904 2.772c-.19.038-.378.082-.566.135L5.972.857a10.068 10.068 0 0 0-1.804 1.034l.735 2.82c-.14.135-.274.276-.403.42L1.658 4.51A10.067 10.067 0 0 0 .7 6.357L2.84 8.33a7.459 7.459 0 0 0-.112.57L0 9.918c-.01.69.052 1.384.188 2.072l2.868.503c.064.182.133.363.213.542l-1.745 2.33c.375.601.803 1.15 1.276 1.643l2.682-1.13c.153.12.311.232.473.339l-.21 2.907a10.05 10.05 0 0 0 1.96.687l1.646-2.403c.193.018.386.028.58.03L11.325 20c.68-.09 1.357-.25 2.02-.484l.088-2.915a7.126 7.126 0 0 0 .504-.29l2.553 1.402a9.948 9.948 0 0 0 1.44-1.5l-1.5-2.5a7.35 7.35 0 0 0 .268-.518l2.901-.205zm-8.025-.23a3.216 3.216 0 0 1-4.394-1.198A3.23 3.23 0 0 1 8.374 7.16a3.216 3.216 0 0 1 4.394 1.197 3.23 3.23 0 0 1-1.195 4.404z"/>
</svg>
