<svg xmlns="http://www.w3.org/2000/svg" width="16" height="16" viewBox="0 0 16 16">
    <path fill="#FFF" fill-rule="evenodd" d="M11.25 6.125c-.5-.5-1-.875-1.375-1.375.75-.875 1.5-1.875 2.25-2.75-.5-.5-1-1.125-1.375-1.625L16 0c-.125 1.75-.25 3.625-.375 5.375-.5-.5-1-.875-1.5-1.375-1 .75-1.875 1.375-2.875 2.125zM9.875 11.25c.5-.5.875-1 1.375-1.5 1 .75 1.875 1.5 2.875 2.25.5-.5 1-.875 1.5-1.375.125 1.75.25 3.625.375 5.375-1.75-.125-3.5-.375-5.25-.5.5-.5.875-1 1.375-1.5-.75-.875-1.5-1.875-2.25-2.75zM4.75 9.75c.5.5.875 1 1.375 1.5-.75.875-1.5 1.875-2.25 2.75l1.5 1.5c-1.75.125-3.625.375-5.375.5.125-1.75.25-3.625.375-5.375.5.5 1 .875 1.5 1.375 1-.75 2-1.5 2.875-2.25zm1.375-5c-.375.5-.875.875-1.375 1.375-.875-.75-1.875-1.5-2.875-2.25l-1.5 1.5C.25 3.625.125 1.75 0 0c1.75.125 3.625.25 5.375.375-.5.5-1 1.125-1.5 1.625.75.875 1.5 1.875 2.25 2.75z"/>
</svg>
