<svg xmlns="http://www.w3.org/2000/svg" width="16" height="16" viewBox="0 0 16 16">
    <g fill="#006089" fill-rule="evenodd">
        <path fill-rule="nonzero" d="M10.5 16.071H16V11.5h-5.5z"/>
        <path d="M6.836 13.54h.703v-.704a.211.211 0 0 1 .422 0v.703h.703a.211.211 0 0 1 0 .422h-.703v.703a.21.21 0 1 1-.422 0v-.703h-.703a.21.21 0 1 1 0-.422zM9.789 16H5.711a.21.21 0 0 1-.211-.21v-4.08a.21.21 0 0 1 .21-.21h4.08a.21.21 0 0 1 .21.21v4.08a.21.21 0 0 1-.21.21zM10.5 10.321H16V5.75h-5.5zM6.836 7.79h.703v-.704a.211.211 0 0 1 .422 0v.703h.703a.211.211 0 0 1 0 .422h-.703v.703a.21.21 0 1 1-.422 0v-.703h-.703a.21.21 0 1 1 0-.422zm2.953 2.46H5.711a.21.21 0 0 1-.211-.21V5.96a.21.21 0 0 1 .21-.21h4.08a.21.21 0 0 1 .21.21v4.08a.21.21 0 0 1-.21.21z"/>
        <path fill-rule="nonzero" d="M5.5 0v4.571H16V0z"/>
        <path d="M1.336 2.039h1.828a.211.211 0 0 1 0 .422H1.336a.21.21 0 1 1 0-.422zM4.289 4.5H.211A.21.21 0 0 1 0 4.289V.211A.21.21 0 0 1 .21 0h4.08a.21.21 0 0 1 .21.21V4.29a.21.21 0 0 1-.21.211z"/>
    </g>
</svg>
