<svg xmlns="http://www.w3.org/2000/svg" xmlns:xlink="http://www.w3.org/1999/xlink" width="16" height="16" viewBox="0 0 16 16">
    <defs>
        <path id="a" d="M7.395 1.922A4.518 4.518 0 0 1 7.411 0H.05v1.922h7.345z"/>
    </defs>
    <g fill="none" fill-rule="evenodd">
        <g fill="#006089" transform="translate(0 5.5)">
            <path d="M9.469 10H4.63c-.141 0-.257-.104-.257-.23V8.309c0-.127.116-.231.257-.231h4.838c.142 0 .257.104.257.231V9.77c0 .126-.115.23-.257.23M11.652 5.959H2.447c-.14 0-.257-.104-.257-.23V4.268c0-.127.116-.231.257-.231h9.205c.142 0 .257.104.257.231v1.461c0 .126-.115.23-.257.23"/>
            <use xlink:href="#a"/>
        </g>
        <path fill="#900" fill-rule="nonzero" d="M12 0c2.212 0 4 1.788 4 4 0 2.212-1.788 4-4 4-2.212 0-4-1.788-4-4 0-2.212 1.788-4 4-4zm1.436 2L12 3.436 10.564 2 10 2.564 11.436 4 10 5.436l.564.564L12 4.564 13.436 6 14 5.436 12.564 4 14 2.564 13.436 2z"/>
    </g>
</svg>
