<svg xmlns="http://www.w3.org/2000/svg" width="16" height="16" viewBox="0 0 16 16">
    <g fill="none" fill-rule="evenodd">
        <path fill="#006089" d="M14.625 1.307c-1.54-1.688-4.038-1.688-5.577 0L8 2.45 6.952 1.303c-1.542-1.688-4.038-1.688-5.577 0-1.733 1.897-1.733 4.977 0 6.873L8 15.44l6.625-7.259c1.733-1.896 1.733-4.976 0-6.873z"/>
        <path fill="#FFF" d="M15.68 7.804h-3.923a.305.305 0 0 0-.29.224l-.29.987-.647-4.857a.312.312 0 0 0-.286-.276.31.31 0 0 0-.313.244L9.063 7.96l-.507-2.318a.309.309 0 0 0-.29-.249.305.305 0 0 0-.3.237l-.91 3.46-.488-5.99a.317.317 0 0 0-.263-.293.307.307 0 0 0-.328.209L4.335 7.832H.32a.314.314 0 0 0-.305.32c0 .177.137.321.305.321h4.228c.13 0 .244-.084.286-.212l1.242-3.645.514 6.311c.012.157.13.277.275.293h.026a.308.308 0 0 0 .294-.237l1.044-3.961.53 2.422a.31.31 0 0 0 .296.248c.141 0 .263-.1.297-.244l.797-3.513.613 4.595a.312.312 0 0 0 .278.277.306.306 0 0 0 .316-.225l.629-2.133h3.699a.314.314 0 0 0 .305-.32c0-.177-.141-.325-.309-.325z"/>
    </g>
</svg>
