<svg xmlns="http://www.w3.org/2000/svg" width="11" height="20" viewBox="0 0 11 20">
    <g fill="#385766" fill-rule="evenodd">
        <path d="M5.052 19.974c-1.455 0-2.512-1.142-2.512-2.627 0-1.512 1.057-2.654 2.512-2.654 1.456 0 2.541 1.142 2.541 2.654 0 1.485-1.085 2.627-2.54 2.627M6.908 13.23H3.225c-.57-4.407 3.597-5.634 3.597-7.775 0-1.17-.77-1.847-1.912-1.847-1.057 0-1.827.519-2.598 1.29L0 2.773C1.284 1.232 3.083.17 5.195.17c3.226 0 5.652 1.607 5.652 4.975 0 3.54-4.282 4.696-3.94 8.086"/>
    </g>
</svg>
