<svg xmlns="http://www.w3.org/2000/svg" width="16" height="16" viewBox="0 0 16 16">
    <path fill="#00A1DD" fill-rule="evenodd" d="M8.084 0c-4.45-.033-8 3.484-8.083 7.917-.083 4.45 3.567 8.083 8 8.083S16 12.4 16 8 12.517.034 8.084 0zm-.167 12.233c.3.1.484-.116.634-.316l.566-.717.234.167-.634.966c-.483.717-1.483 1.25-2.233.967-.4-.167-.7-.55-.566-1.033.4-1.467.816-3.034 1.2-4.4.05-.15.083-.317.083-.484 0-.233-.167-.483-.4-.483h-.4l.083-.233.083-.084 2.4-.4h.484l-1.6 5.6c-.067.234-.134.417.083.467l-.017-.017zm1.117-7.366c-.6 0-1.117-.433-1.117-1.033 0-.6.484-1.117 1.034-1.117.633 0 1.116.433 1.116 1.033 0 .6-.433 1.117-1.033 1.117z"/>
</svg>
