<svg xmlns="http://www.w3.org/2000/svg" width="16" height="16" viewBox="0 0 16 16">
    <path fill="#006089" fill-rule="nonzero" d="M13.818 7.273H16v1.454h-2.182V7.273zM0 7.273h2.182v1.454H0V7.273zM8.727 0v2.182H7.273V0h1.454zM2.851 1.818L4.4 3.375 3.367 4.4 1.818 2.858l1.033-1.04zm8.749 1.55l1.542-1.55 1.04 1.04-1.55 1.542L11.6 3.367zM12.364 8c0 1.615-.88 3.025-2.182 3.782v1.309a.727.727 0 0 1-.727.727h-2.91a.727.727 0 0 1-.727-.727v-1.31A4.364 4.364 0 1 1 12.363 8zm-2.91 7.273a.727.727 0 0 1-.727.727H7.273a.727.727 0 0 1-.728-.727v-.728h2.91v.728zm-2.181-2.91h1.454v-1.548a2.91 2.91 0 1 0-1.455 0v1.549z"/>
</svg>
