<svg xmlns="http://www.w3.org/2000/svg" width="12" height="16" viewBox="0 0 12 16">
    <path fill="#006089" fill-rule="evenodd" d="M11.306 16.227H.694c-.383 0-.694-.34-.694-.76V8.896c0-.42.31-.76.694-.76h1.152V4.59C1.94 2.151 3.772.227 6 .227c2.228 0 4.06 1.925 4.154 4.364v3.544h1.152c.383 0 .694.34.694.76v6.58c-.004.417-.314.752-.694.752zM5.31 12.473v1.472c0 .272.132.523.347.659.214.136.479.136.694 0a.777.777 0 0 0 .347-.659v-1.472c.544-.345.81-1.047.647-1.712-.163-.665-.713-1.127-1.341-1.127-.629 0-1.179.462-1.341 1.127-.163.665.102 1.367.647 1.712zM8.773 4.59c0-1.676-1.24-3.034-2.77-3.034-1.529 0-2.769 1.358-2.769 3.034v3.544h5.539V4.591z"/>
</svg>
