<svg xmlns="http://www.w3.org/2000/svg" width="16" height="16" viewBox="0 0 16 16">
    <g fill="#00A1DD" fill-rule="evenodd">
        <path d="M15.997 8.365c-.009.09-.02.177-.032.264-.516 3.735-3.893 6.64-7.948 6.64C3.607 15.27 0 11.835 0 7.636 0 3.435 3.608 0 8.017 0a8.25 8.25 0 0 1 4.771 1.51l-1.378.81c-.95-.518-2.21-.873-3.393-.873-3.608 0-6.497 2.752-6.497 6.188s2.89 6.187 6.497 6.187c3.287 0 5.977-2.284 6.43-5.29"/>
        <path d="M11.073 9.878H6.347v-5.6h1.436V8.51h3.29zM9.65 4.037l5.263.668L14.089 0z"/>
    </g>
</svg>
