<svg xmlns="http://www.w3.org/2000/svg" xmlns:xlink="http://www.w3.org/1999/xlink" width="16" height="16" viewBox="0 0 16 16">
    <defs>
        <path id="a" d="M15.85 0H0v14.992h15.85V0z"/>
    </defs>
    <g fill="none" fill-rule="evenodd" transform="translate(.2 .5)">
        <mask id="b" fill="#fff">
            <use xlink:href="#a"/>
        </mask>
        <path fill="#006089" d="M15.85 2.537v1.192c0 .09-.41.179-1.23.264-.066.153-.148.3-.247.443.28.64.42 1.032.42 1.174 0 .023-.01.043-.032.06-.672.403-1.013.604-1.024.604-.044 0-.17-.133-.38-.4a9.108 9.108 0 0 1-.429-.579c-.11.012-.193.017-.248.017-.055 0-.137-.005-.247-.017-.077.12-.22.313-.43.58-.209.266-.335.4-.38.4-.01 0-.352-.202-1.023-.605-.022-.017-.033-.037-.033-.06 0-.142.14-.533.421-1.174-.1-.142-.182-.29-.248-.443-.82-.085-1.23-.173-1.23-.264V2.537c0-.09.41-.179 1.23-.264.072-.164.154-.312.248-.443-.28-.64-.421-1.033-.421-1.174 0-.023.011-.043.033-.06.022-.011.118-.068.289-.17a81.9 81.9 0 0 1 .487-.29c.154-.09.237-.136.248-.136.044 0 .17.132.38.396.209.264.352.455.429.575.11-.012.192-.017.247-.017.055 0 .138.005.248.017.28-.403.534-.721.76-.954l.05-.017c.021 0 .362.199 1.023.596.022.017.033.037.033.06 0 .141-.14.533-.421 1.174.093.13.176.279.247.443.82.085 1.23.173 1.23.264m0 8.718v1.192c0 .09-.41.178-1.23.264-.066.153-.148.3-.247.442.28.642.42 1.033.42 1.175 0 .023-.01.043-.032.06-.672.403-1.013.604-1.024.604-.044 0-.17-.133-.38-.4a9.111 9.111 0 0 1-.429-.579c-.11.011-.193.017-.248.017-.055 0-.137-.006-.247-.017-.077.12-.22.312-.43.58-.209.266-.335.4-.38.4-.01 0-.352-.202-1.023-.605-.022-.017-.033-.037-.033-.06 0-.142.14-.533.421-1.175a2.5 2.5 0 0 1-.248-.442c-.82-.086-1.23-.174-1.23-.264v-1.192c0-.091.41-.179 1.23-.264.072-.165.154-.312.248-.443-.28-.641-.421-1.033-.421-1.175 0-.022.011-.042.033-.06.022-.01.118-.067.289-.17l.487-.289c.154-.09.237-.136.248-.136.044 0 .17.132.38.396.209.264.352.455.429.574a2.65 2.65 0 0 1 .247-.017c.055 0 .138.006.248.017.28-.403.534-.72.76-.953l.05-.017c.021 0 .362.198 1.023.596.022.017.033.037.033.06 0 .141-.14.533-.421 1.174.093.13.176.278.247.443.82.085 1.23.173 1.23.264m-5.283-4.538v1.575c0 .057-.02.112-.058.166-.038.054-.082.084-.132.09l-1.28.204c-.06.198-.148.414-.264.647.187.272.435.599.743.979a.302.302 0 0 1 .058.17c0 .068-.02.122-.058.162-.126.17-.353.424-.68.762-.328.338-.544.506-.649.506a.292.292 0 0 1-.173-.06l-.95-.765a3.678 3.678 0 0 1-.635.264c-.06.613-.124 1.052-.19 1.32-.039.135-.121.203-.248.203H4.516a.247.247 0 0 1-.165-.063.221.221 0 0 1-.083-.15l-.19-1.302a3.558 3.558 0 0 1-.619-.264l-.974.758c-.039.04-.094.06-.165.06a.269.269 0 0 1-.174-.069c-.792-.755-1.188-1.209-1.188-1.362a.29.29 0 0 1 .057-.162c.055-.079.168-.23.339-.45.17-.222.3-.395.388-.52a4.429 4.429 0 0 1-.289-.698L.198 8.513a.202.202 0 0 1-.14-.08A.259.259 0 0 1 0 8.267V6.692c0-.057.02-.112.058-.166.038-.054.082-.084.132-.09l1.28-.204a4.27 4.27 0 0 1 .264-.647 15.967 15.967 0 0 0-.743-.98.331.331 0 0 1-.058-.17c0-.068.02-.124.058-.17.12-.17.346-.423.677-.757.33-.335.547-.503.652-.503.06 0 .118.02.173.06l.95.766a3.95 3.95 0 0 1 .635-.272c.06-.613.124-1.05.19-1.311.039-.137.121-.205.248-.205H6.05c.06 0 .116.022.165.064.05.043.077.092.083.15l.19 1.302c.187.056.393.144.619.264l.974-.758a.237.237 0 0 1 .165-.06c.06 0 .119.023.174.068.792.755 1.188 1.21 1.188 1.363a.29.29 0 0 1-.057.161c-.066.091-.182.244-.347.46a9.753 9.753 0 0 0-.372.51c.127.273.22.506.281.699l1.255.196a.238.238 0 0 1 .14.09.259.259 0 0 1 .058.165m3.17-3.584c0-.295-.105-.55-.314-.766a1 1 0 0 0-.743-.324 1 1 0 0 0-.743.324c-.209.215-.313.47-.313.766 0 .3.103.558.31.77.206.213.455.32.746.32.292 0 .541-.107.747-.32.207-.212.31-.47.31-.77m0 8.718c0-.295-.105-.55-.314-.766a1 1 0 0 0-.743-.324 1 1 0 0 0-.743.324c-.209.215-.313.47-.313.766 0 .3.103.557.31.77.206.213.455.32.746.32.292 0 .541-.107.747-.32.207-.213.31-.47.31-.77m-6.34-4.36c0-.6-.206-1.114-.62-1.54a2.006 2.006 0 0 0-1.494-.639c-.583 0-1.081.213-1.494.639-.413.426-.619.94-.619 1.54 0 .602.206 1.116.62 1.542.412.425.91.638 1.493.638.584 0 1.082-.213 1.495-.638.413-.426.619-.94.619-1.541" mask="url(#b)"/>
    </g>
</svg>
