<svg xmlns="http://www.w3.org/2000/svg" width="21" height="16" viewBox="0 0 21 16">
    <path fill="#006089" fill-rule="evenodd" d="M15.948 9.465c0 .369-.125.689-.388.947l-5.166 5.194c-.275.259-.6.394-.963.394-.375 0-.688-.135-.95-.394L.95 8.05C.688 7.791.463 7.434.275 6.98.088 6.522 0 6.116 0 5.747V1.354C0 .984.138.677.4.406A1.29 1.29 0 0 1 1.35 0h4.391c.376 0 .788.098 1.239.283.45.185.813.419 1.075.677l7.505 7.545c.263.27.388.59.388.96zM4.703 3.385c0-.37-.137-.69-.4-.96a1.259 1.259 0 0 0-.95-.394c-.376 0-.689.135-.951.394-.263.258-.4.578-.4.96 0 .369.137.689.4.96.262.258.575.393.95.393s.688-.135.95-.393c.264-.259.401-.591.401-.96zm15.298 6.08c0 .369-.125.689-.388.947l-5.178 5.194a1.354 1.354 0 0 1-.963.394c-.25 0-.463-.05-.626-.148a2.95 2.95 0 0 1-.563-.48l4.966-4.96a1.28 1.28 0 0 0 .388-.947c0-.37-.125-.69-.388-.96L9.719.96C9.456.69 9.094.468 8.643.283 8.193.098 7.78 0 7.405 0h2.364c.375 0 .788.098 1.238.283.45.185.813.419 1.076.677l7.53 7.545c.263.27.388.59.388.96z"/>
</svg>
